<?xml version="1.0" standalone="no"?>
<!DOCTYPE svg PUBLIC "-//W3C//DTD SVG 20010904//EN"
 "http://www.w3.org/TR/2001/REC-SVG-20010904/DTD/svg10.dtd">
<svg version="1.0" xmlns="http://www.w3.org/2000/svg"
 width="978.000000pt" height="244.000000pt" viewBox="0 0 978.000000 244.000000"
 preserveAspectRatio="xMidYMid meet">

<g transform="translate(0.000000,244.000000) scale(0.100000,-0.100000)"
fill="#000000" stroke="none">
<path d="M565 2113 c-132 -46 -249 -93 -260 -104 -20 -19 -20 -33 -20 -749 0
-635 2 -731 15 -744 8 -9 130 -41 278 -74 145 -32 267 -63 270 -69 4 -6 86
-44 182 -84 l175 -74 110 1 c138 2 946 43 962 49 8 3 13 24 13 59 l0 55 -117
97 c-65 54 -124 104 -130 112 -20 24 -17 147 3 167 15 15 17 85 22 709 5 644
4 693 -12 709 -16 16 -65 17 -614 18 -328 1 -606 2 -617 3 -11 1 -128 -36
-260 -81z m1023 52 c191 -8 362 -18 380 -21 41 -6 47 -20 67 -157 12 -86 15
-217 15 -663 l0 -554 -22 -10 c-13 -5 -291 -15 -618 -22 -592 -13 -595 -13
-601 7 -3 11 -7 338 -8 728 l-3 707 222 0 c122 0 378 -7 568 -15z m432 -1523
l0 -58 122 -99 c68 -55 116 -101 108 -102 -8 -1 -239 -12 -512 -24 l-498 -22
-185 106 c-102 59 -189 107 -194 107 -13 0 -21 -37 -21 -97 0 -29 -4 -53 -10
-53 -6 0 -10 34 -10 83 0 45 -3 105 -6 133 l-7 52 289 7 c159 4 329 8 379 9
l90 1 5 -30 5 -30 125 -3 c69 -1 150 1 180 5 53 8 55 9 58 41 3 30 6 32 43 32
l39 0 0 -58z m-770 -397 c0 -8 -4 -15 -10 -15 -5 0 -7 7 -4 15 4 8 8 15 10 15
2 0 4 -7 4 -15z"/>
<path d="M1012 1958 c-9 -9 -12 -106 -12 -376 l0 -365 398 7 c289 6 400 11
410 20 9 9 14 102 19 360 5 294 4 349 -8 357 -23 14 -792 12 -807 -3z m358
-58 c0 -5 -19 -14 -42 -20 -24 -6 -74 -21 -113 -33 l-70 -22 -25 -98 c-14 -53
-29 -96 -35 -94 -6 2 -11 52 -13 117 -4 163 -7 160 163 160 80 0 135 -4 135
-10z"/>
<path d="M1882 858 l3 -53 46 -3 c46 -3 47 -3 53 33 12 61 2 75 -55 75 l-50 0
3 -52z"/>
<path d="M898 868 c-14 -36 -1 -38 242 -38 131 0 245 3 254 6 9 3 16 15 16 25
0 18 -11 19 -254 19 -194 0 -255 -3 -258 -12z"/>
<path d="M1515 534 c-148 -6 -303 -13 -342 -13 -43 -1 -73 -5 -73 -11 0 -6 39
-36 87 -67 l87 -56 426 17 c234 10 427 19 429 21 7 8 -14 28 -81 75 l-71 50
-96 -2 c-53 0 -217 -7 -366 -14z"/>
<path d="M3130 2090 c-287 -106 -520 -544 -520 -979 0 -181 25 -302 90 -431
46 -90 82 -132 190 -219 134 -109 188 -134 290 -133 87 2 151 21 229 71 86 56
200 190 260 308 38 76 22 60 -27 -26 -56 -100 -176 -232 -253 -278 -114 -68
-246 -79 -352 -28 -302 144 -388 692 -182 1168 75 173 236 362 361 423 54 26
68 29 165 29 l107 0 71 -49 c81 -55 119 -99 168 -194 19 -37 31 -56 28 -42
-24 84 -105 184 -240 294 -90 73 -154 99 -250 103 -62 3 -92 -1 -135 -17z"/>
<path d="M6029 2101 c-68 -22 -159 -81 -222 -145 -166 -166 -274 -402 -314
-689 -14 -103 -15 -137 -5 -246 6 -69 19 -153 28 -186 35 -132 121 -275 198
-332 21 -16 64 -51 97 -80 85 -73 150 -96 259 -91 116 5 191 41 294 139 164
155 270 370 315 639 l18 105 53 12 c205 45 316 158 234 239 -20 21 -33 25 -65
22 -38 -3 -39 -3 -39 27 0 69 -73 94 -158 55 -31 -14 -44 -16 -47 -7 -2 7 -11
39 -20 72 -28 100 -90 207 -154 267 -176 162 -244 200 -366 205 -44 1 -92 -1
-106 -6z m377 -139 c69 -44 119 -94 165 -165 43 -66 105 -245 115 -331 4 -31
10 -58 13 -61 4 -2 40 11 81 30 41 18 96 37 122 40 42 6 50 4 72 -18 32 -32
33 -54 4 -97 -30 -44 -114 -90 -212 -116 l-80 -21 -18 -107 c-35 -212 -116
-406 -231 -552 -117 -148 -238 -217 -382 -218 -71 -1 -88 3 -146 31 -360 178
-400 881 -77 1350 86 125 213 230 318 264 14 5 66 7 115 6 83 -2 95 -5 141
-35z"/>
<path d="M6226 1799 c-54 -43 -71 -122 -44 -213 25 -85 184 -201 293 -214 l47
-5 -7 49 c-21 150 -75 304 -121 345 -32 28 -93 59 -118 59 -13 0 -35 -9 -50
-21z m93 -26 c20 -41 55 -177 66 -257 l7 -49 -39 7 c-62 11 -126 48 -147 84
-27 48 -32 148 -9 192 35 67 94 78 122 23z"/>
<path d="M5941 1590 c-105 -131 -174 -430 -151 -654 18 -174 51 -271 119 -348
46 -51 101 -78 162 -78 153 0 347 260 419 563 29 122 29 124 -29 132 -116 16
-274 104 -363 204 -38 42 -81 117 -114 199 -9 23 -10 23 -43 -18z m30 -89 c64
-84 310 -270 359 -271 42 -1 43 -14 12 -116 -54 -171 -146 -338 -234 -421 -43
-40 -107 -73 -157 -80 -49 -7 -71 13 -101 93 -72 191 -71 462 2 679 23 68 68
165 77 164 3 0 22 -22 42 -48z"/>
<path d="M7382 2099 c-71 -12 -107 -32 -120 -66 -6 -15 -27 -152 -47 -303 -20
-151 -45 -338 -55 -415 -53 -377 -100 -783 -95 -812 7 -40 48 -73 90 -73 29 0
33 -4 39 -34 15 -78 108 -98 151 -33 9 14 20 52 26 86 16 103 49 374 48 401
-1 14 -16 -82 -34 -212 -21 -157 -38 -246 -49 -263 -33 -50 -103 -41 -127 17
-17 42 -10 119 71 728 104 786 108 811 126 831 32 36 82 44 274 44 209 0 237
-5 328 -64 68 -44 109 -98 128 -169 7 -26 13 -38 13 -26 3 68 -55 153 -149
221 -25 18 -64 49 -88 68 -71 57 -153 78 -327 81 -82 1 -174 -2 -203 -7z"/>
<path d="M8730 2103 c-44 -7 -80 -25 -91 -45 -10 -19 -27 -130 -94 -638 -93
-698 -116 -887 -110 -916 7 -41 42 -72 84 -76 29 -2 36 -8 43 -34 14 -55 39
-68 126 -66 274 6 532 130 686 331 48 63 110 171 120 211 4 14 -7 -3 -23 -36
-104 -220 -281 -373 -518 -448 -90 -28 -282 -53 -325 -43 -36 9 -62 59 -60
117 1 25 44 366 96 759 66 489 100 721 111 737 22 33 47 37 213 32 178 -6 247
-25 356 -99 102 -68 153 -134 202 -258 13 -32 14 -32 8 -6 -9 48 -51 127 -90
173 -39 46 -141 133 -227 193 -113 80 -365 135 -507 112z"/>
<path d="M4215 2074 c-29 -32 -28 -23 -70 -339 -19 -143 -61 -462 -95 -710
-33 -247 -60 -470 -60 -496 0 -60 33 -99 83 -99 31 0 36 -4 51 -44 20 -52 63
-74 109 -57 31 12 60 63 54 94 -3 18 -5 17 -6 -6 -1 -36 -42 -77 -76 -77 -36
0 -71 38 -78 86 -4 26 27 291 93 779 92 685 101 741 121 758 36 29 67 32 100
8 18 -13 26 -16 23 -7 -8 21 -60 39 -89 32 -23 -6 -25 -3 -25 24 0 71 -87 106
-135 54z"/>
<path d="M4883 2078 c-28 -31 -30 -41 -53 -214 -10 -82 -26 -198 -34 -259 -8
-60 -20 -150 -26 -200 -19 -152 6 -135 -194 -135 -172 0 -174 0 -180 -22 -3
-13 -6 -35 -6 -50 l0 -28 245 0 245 0 4 23 c3 12 26 182 52 377 25 195 51 366
58 380 7 17 24 28 49 34 32 8 42 6 70 -13 l32 -22 -29 26 c-24 22 -36 26 -63
22 -31 -5 -33 -4 -33 22 0 16 -9 40 -21 55 -27 35 -86 36 -116 4z"/>
<path d="M4473 1905 c0 -22 2 -30 4 -17 2 12 2 30 0 40 -3 9 -5 -1 -4 -23z"/>
<path d="M5143 1900 c0 -25 2 -35 4 -22 2 12 2 32 0 45 -2 12 -4 2 -4 -23z"/>
<path d="M7595 1853 c-22 -2 -44 -8 -49 -13 -9 -9 -61 -397 -71 -525 -3 -44
-8 -88 -11 -98 -8 -26 18 -30 88 -13 112 28 245 101 319 175 84 84 112 150
113 267 1 74 -1 84 -27 117 -16 21 -52 49 -80 64 -44 22 -67 26 -147 28 -52 2
-113 1 -135 -2z m247 -31 c9 -9 13 -38 12 -87 -3 -149 -92 -271 -265 -360 -50
-26 -93 -44 -97 -41 -5 5 41 409 54 473 6 29 20 32 161 30 85 -1 126 -6 135
-15z"/>
<path d="M3282 1820 c-60 -27 -145 -111 -197 -194 -43 -69 -125 -260 -125
-287 1 -8 14 20 29 61 92 246 210 393 337 420 73 15 97 3 133 -68 34 -67 49
-82 93 -91 24 -5 37 -16 53 -46 23 -46 63 -69 105 -60 28 6 60 42 60 67 0 7
-6 2 -13 -12 -7 -13 -24 -29 -38 -34 -47 -16 -73 -1 -119 70 -114 176 -205
226 -318 174z"/>
<path d="M4462 1815 c0 -16 2 -22 5 -12 2 9 2 23 0 30 -3 6 -5 -1 -5 -18z"/>
<path d="M8904 1827 c-3 -9 -4 -26 -1 -39 3 -17 5 -15 6 10 1 30 3 32 40 32
61 0 192 -20 228 -35 52 -22 93 -120 108 -260 8 -69 -9 -259 -32 -360 -37
-163 -130 -322 -242 -412 -56 -45 -234 -138 -248 -130 -5 3 -9 -24 -11 -59
l-3 -64 29 0 c52 0 182 39 251 75 243 128 368 363 387 730 13 255 -59 406
-233 491 -47 24 -72 28 -164 32 -92 4 -110 2 -115 -11z"/>
<path d="M5132 1800 c0 -19 2 -27 5 -17 2 9 2 25 0 35 -3 9 -5 1 -5 -18z"/>
<path d="M4452 1735 c0 -16 2 -22 5 -12 2 9 2 23 0 30 -3 6 -5 -1 -5 -18z"/>
<path d="M5122 1725 c0 -16 2 -22 5 -12 2 9 2 23 0 30 -3 6 -5 -1 -5 -18z"/>
<path d="M8892 1720 c0 -19 2 -27 5 -17 2 9 2 25 0 35 -3 9 -5 1 -5 -18z"/>
<path d="M8152 1665 c-4 -80 -29 -185 -63 -255 -49 -100 -167 -211 -294 -276
-55 -29 -124 -59 -152 -69 -29 -9 -53 -23 -53 -30 0 -7 135 -138 301 -290 165
-152 304 -288 310 -302 21 -57 -24 -111 -83 -99 -38 8 -138 91 -441 371 -125
115 -235 211 -243 213 -9 2 -14 -4 -13 -20 1 -17 3 -18 6 -5 5 18 23 24 23 7
0 -15 431 -418 507 -472 17 -13 55 -42 83 -65 77 -63 147 -59 170 11 23 69 33
58 -469 515 -75 68 -137 127 -139 131 -2 5 14 14 35 20 142 47 299 143 378
232 87 100 151 274 142 387 l-3 46 -2 -50z"/>
<path d="M4442 1650 c0 -19 2 -27 5 -17 2 9 2 25 0 35 -3 9 -5 1 -5 -18z"/>
<path d="M5112 1645 c0 -16 2 -22 5 -12 2 9 2 23 0 30 -3 6 -5 -1 -5 -18z"/>
<path d="M8882 1640 c0 -19 2 -27 5 -17 2 9 2 25 0 35 -3 9 -5 1 -5 -18z"/>
<path d="M4432 1570 c0 -19 2 -27 5 -17 2 9 2 25 0 35 -3 9 -5 1 -5 -18z"/>
<path d="M5102 1565 c0 -16 2 -22 5 -12 2 9 2 23 0 30 -3 6 -5 -1 -5 -18z"/>
<path d="M8873 1555 c0 -22 2 -30 4 -17 2 12 2 30 0 40 -3 9 -5 -1 -4 -23z"/>
<path d="M9562 1570 c0 -14 2 -19 5 -12 2 6 2 18 0 25 -3 6 -5 1 -5 -13z"/>
<path d="M9572 1510 c0 -19 2 -27 5 -17 2 9 2 25 0 35 -3 9 -5 1 -5 -18z"/>
<path d="M4422 1490 c0 -19 2 -27 5 -17 2 9 2 25 0 35 -3 9 -5 1 -5 -18z"/>
<path d="M5092 1485 c0 -16 2 -22 5 -12 2 9 2 23 0 30 -3 6 -5 -1 -5 -18z"/>
<path d="M8862 1480 c0 -19 2 -27 5 -17 2 9 2 25 0 35 -3 9 -5 1 -5 -18z"/>
<path d="M4412 1410 c0 -19 2 -27 5 -17 2 9 2 25 0 35 -3 9 -5 1 -5 -18z"/>
<path d="M5082 1410 c0 -19 2 -27 5 -17 2 9 2 25 0 35 -3 9 -5 1 -5 -18z"/>
<path d="M8852 1400 c0 -19 2 -27 5 -17 2 9 2 25 0 35 -3 9 -5 1 -5 -18z"/>
<path d="M9583 1390 c0 -25 2 -35 4 -22 2 12 2 32 0 45 -2 12 -4 2 -4 -23z"/>
<path d="M4402 1330 c0 -19 2 -27 5 -17 2 9 2 25 0 35 -3 9 -5 1 -5 -18z"/>
<path d="M5072 1330 c0 -19 2 -27 5 -17 2 9 2 25 0 35 -3 9 -5 1 -5 -18z"/>
<path d="M8842 1320 c0 -19 2 -27 5 -17 2 9 2 25 0 35 -3 9 -5 1 -5 -18z"/>
<path d="M2945 1290 c-4 -17 -5 -34 -2 -36 2 -3 7 10 11 27 8 42 0 50 -9 9z"/>
<path d="M9573 1245 c0 -27 2 -38 4 -22 2 15 2 37 0 50 -2 12 -4 0 -4 -28z"/>
<path d="M5114 1273 c-45 -4 -54 -17 -54 -75 l0 -28 108 -1 c151 -1 211 -11
234 -39 26 -32 23 -72 -8 -101 -25 -23 -32 -24 -195 -27 -93 -2 -169 -6 -169
-10 0 -13 333 2 357 16 77 43 39 162 -51 162 -31 0 -36 3 -36 24 0 13 -8 34
-17 45 -17 21 -80 42 -113 39 -8 -1 -34 -3 -56 -5z"/>
<path d="M8832 1240 c0 -19 2 -27 5 -17 2 9 2 25 0 35 -3 9 -5 1 -5 -18z"/>
<path d="M2932 1220 c0 -14 2 -19 5 -12 2 6 2 18 0 25 -3 6 -5 1 -5 -13z"/>
<path d="M8823 1165 c0 -22 2 -30 4 -17 2 12 2 30 0 40 -3 9 -5 -1 -4 -23z"/>
<path d="M2916 1129 c-3 -34 -5 -96 -5 -138 2 -59 4 -46 10 59 9 142 6 182 -5
79z"/>
<path d="M9562 1155 c0 -16 2 -22 5 -12 2 9 2 23 0 30 -3 6 -5 -1 -5 -18z"/>
<path d="M8813 1085 c0 -22 2 -30 4 -17 2 12 2 30 0 40 -3 9 -5 -1 -4 -23z"/>
<path d="M9552 1090 c0 -14 2 -19 5 -12 2 6 2 18 0 25 -3 6 -5 1 -5 -13z"/>
<path d="M9541 1044 c0 -11 3 -14 6 -6 3 7 2 16 -1 19 -3 4 -6 -2 -5 -13z"/>
<path d="M8803 1005 c0 -22 2 -30 4 -17 2 12 2 30 0 40 -3 9 -5 -1 -4 -23z"/>
<path d="M9531 1004 c0 -11 3 -14 6 -6 3 7 2 16 -1 19 -3 4 -6 -2 -5 -13z"/>
<path d="M4390 991 c19 -4 99 -5 178 -3 136 5 142 4 142 -15 0 -11 -11 -106
-25 -211 -29 -223 -30 -253 -10 -291 16 -32 33 -41 75 -41 26 0 31 -5 40 -40
13 -48 60 -77 104 -66 29 7 66 59 65 91 0 13 -4 8 -10 -12 -27 -93 -143 -76
-155 22 -3 22 11 157 29 300 19 143 33 262 32 263 -2 2 -115 6 -252 7 -136 2
-232 0 -213 -4z"/>
<path d="M3453 978 c-12 -6 -44 -49 -70 -97 -100 -178 -271 -305 -354 -261
-37 20 -97 178 -100 266 -1 19 -3 23 -6 10 -7 -28 15 -132 43 -201 27 -67 100
-149 151 -171 50 -22 113 -17 171 12 67 33 175 149 226 242 31 56 46 74 71 82
56 19 103 -13 106 -72 1 -18 2 -19 6 -5 13 51 -48 107 -102 93 -22 -6 -25 -3
-25 19 0 39 -18 65 -55 81 -19 8 -36 14 -37 13 -2 0 -13 -5 -25 -11z"/>
<path d="M9512 943 c-15 -48 -8 -55 8 -8 7 20 10 38 8 41 -3 2 -10 -13 -16
-33z"/>
<path d="M4352 940 c0 -19 2 -27 5 -17 2 9 2 25 0 35 -3 9 -5 1 -5 -18z"/>
<path d="M8793 925 c0 -22 2 -30 4 -17 2 12 2 30 0 40 -3 9 -5 -1 -4 -23z"/>
<path d="M5022 925 c0 -16 2 -22 5 -12 2 9 2 23 0 30 -3 6 -5 -1 -5 -18z"/>
<path d="M4342 860 c0 -19 2 -27 5 -17 2 9 2 25 0 35 -3 9 -5 1 -5 -18z"/>
<path d="M5012 850 c0 -19 2 -27 5 -17 2 9 2 25 0 35 -3 9 -5 1 -5 -18z"/>
<path d="M8783 845 c0 -22 2 -30 4 -17 2 12 2 30 0 40 -3 9 -5 -1 -4 -23z"/>
<path d="M4332 780 c0 -19 2 -27 5 -17 2 9 2 25 0 35 -3 9 -5 1 -5 -18z"/>
<path d="M5002 770 c0 -19 2 -27 5 -17 2 9 2 25 0 35 -3 9 -5 1 -5 -18z"/>
<path d="M8772 770 c0 -19 2 -27 5 -17 2 9 2 25 0 35 -3 9 -5 1 -5 -18z"/>
<path d="M4322 700 c0 -19 2 -27 5 -17 2 9 2 25 0 35 -3 9 -5 1 -5 -18z"/>
<path d="M4992 695 c0 -16 2 -22 5 -12 2 9 2 23 0 30 -3 6 -5 -1 -5 -18z"/>
<path d="M8762 695 c0 -16 2 -22 5 -12 2 9 2 23 0 30 -3 6 -5 -1 -5 -18z"/>
<path d="M4312 625 c0 -16 2 -22 5 -12 2 9 2 23 0 30 -3 6 -5 -1 -5 -18z"/>
<path d="M4982 620 c0 -19 2 -27 5 -17 2 9 2 25 0 35 -3 9 -5 1 -5 -18z"/>
<path d="M4302 550 c0 -19 2 -27 5 -17 2 9 2 25 0 35 -3 9 -5 1 -5 -18z"/>
<path d="M4972 545 c0 -16 2 -22 5 -12 2 9 2 23 0 30 -3 6 -5 -1 -5 -18z"/>
<path d="M4292 480 c0 -19 2 -27 5 -17 2 9 2 25 0 35 -3 9 -5 1 -5 -18z"/>
<path d="M4962 475 c0 -16 2 -22 5 -12 2 9 2 23 0 30 -3 6 -5 -1 -5 -18z"/>
</g>
</svg>
